<svg data-v-423bf9ae="" xmlns="http://www.w3.org/2000/svg" viewBox="0 0 558 90" class="iconLeft"><!----><!----><!----><g data-v-423bf9ae="" id="15ea3a11-0917-4ecb-a46f-660c86f260a1" fill="#ffffff" transform="matrix(6.6815148172109975,0,0,6.6815148172109975,101.97850252524404,-18.006684056178834)"><path d="M0.62 7.38L0.62 7.38Q0.62 6.23 1.36 5.59L1.36 5.59L1.36 5.59Q2.10 4.94 3.46 4.94L3.46 4.94L3.46 4.94Q4.66 4.94 5.78 5.32L5.78 5.32L5.64 7.20L5.05 7.20L4.75 5.87L4.75 5.87Q4.55 5.81 4.19 5.77L4.19 5.77L4.19 5.77Q3.84 5.73 3.57 5.73L3.57 5.73L3.57 5.73Q2.79 5.73 2.32 6.06L2.32 6.06L2.32 6.06Q1.86 6.40 1.86 7.07L1.86 7.07L1.86 7.07Q1.86 7.62 2.18 7.96L2.18 7.96L2.18 7.96Q2.49 8.30 3.14 8.55L3.14 8.55L4.56 9.14L4.56 9.14Q5.35 9.45 5.71 9.98L5.71 9.98L5.71 9.98Q6.08 10.51 6.08 11.37L6.08 11.37L6.08 11.37Q6.08 12.54 5.27 13.20L5.27 13.20L5.27 13.20Q4.47 13.86 2.93 13.86L2.93 13.86L2.93 13.86Q2.34 13.86 1.67 13.75L1.67 13.75L1.67 13.75Q0.99 13.64 0.46 13.43L0.46 13.43L0.66 11.68L1.26 11.68L1.51 12.88L1.51 12.88Q2.23 13.08 2.97 13.08L2.97 13.08L2.97 13.08Q3.79 13.08 4.28 12.72L4.28 12.72L4.28 12.72Q4.76 12.36 4.76 11.75L4.76 11.75L4.76 11.75Q4.76 11.20 4.48 10.84L4.48 10.84L4.48 10.84Q4.20 10.47 3.54 10.21L3.54 10.21L2.07 9.62L2.07 9.62Q1.41 9.37 1.02 8.82L1.02 8.82L1.02 8.82Q0.62 8.27 0.62 7.38L0.62 7.38ZM17.00 7.35L16.11 7.63L14.10 13.78L13.22 13.92L11.72 9.52L10.29 13.78L9.41 13.92L7.24 7.62L6.47 7.35L6.47 6.85L9.49 6.85L9.49 7.36L8.67 7.62L10.07 12.00L11.51 7.49L12.39 7.36L13.89 12.00L15.19 7.63L14.08 7.36L14.08 6.85L17.00 6.85L17.00 7.35ZM20.05 7.56L20.05 7.56Q19.39 7.56 18.77 7.76L18.77 7.76L18.45 8.95L17.91 8.95L17.67 7.22L17.67 7.22Q19.07 6.71 20.37 6.71L20.37 6.71L20.37 6.71Q21.43 6.71 21.99 7.06L21.99 7.06L21.99 7.06Q22.55 7.42 22.55 8.30L22.55 8.30L22.55 12.80L23.76 13.09L23.76 13.55L23.76 13.55Q22.97 13.78 22.26 13.78L22.26 13.78L22.26 13.78Q21.87 13.78 21.57 13.58L21.57 13.58L21.57 13.58Q21.28 13.38 21.20 13.02L21.20 13.02L21.20 13.02Q20.62 13.44 20.06 13.66L20.06 13.66L20.06 13.66Q19.50 13.87 18.89 13.87L18.89 13.87L18.89 13.87Q18.16 13.87 17.75 13.37L17.75 13.37L17.75 13.37Q17.33 12.87 17.33 12.15L17.33 12.15L17.33 12.15Q17.33 11.48 17.72 10.92L17.72 10.92L17.72 10.92Q18.10 10.36 19.11 10.18L19.11 10.18L21.17 9.80L21.17 8.68L21.17 8.68Q21.17 8.11 20.92 7.83L20.92 7.83L20.92 7.83Q20.68 7.56 20.05 7.56L20.05 7.56ZM19.89 10.70L19.89 10.70Q18.75 10.92 18.75 11.94L18.75 11.94L18.75 11.94Q18.75 12.92 19.68 12.92L19.68 12.92L19.68 12.92Q20.29 12.92 21.17 12.45L21.17 12.45L21.17 10.47L19.89 10.70ZM26.95 7.27L26.95 7.27Q27.43 7.07 28.13 6.89L28.13 6.89L28.13 6.89Q28.83 6.71 29.44 6.71L29.44 6.71L29.44 6.71Q30.24 6.71 30.75 7.06L30.75 7.06L30.75 7.06Q31.26 7.42 31.26 8.22L31.26 8.22L31.26 12.91L32.48 13.26L32.48 13.72L28.83 13.72L28.83 13.26L29.88 12.91L29.88 8.53L29.88 8.53Q29.88 8.16 29.77 7.97L29.77 7.97L29.77 7.97Q29.67 7.78 29.40 7.71L29.40 7.71L29.40 7.71Q29.13 7.64 28.62 7.64L28.62 7.64L28.62 7.64Q27.69 7.64 26.95 7.85L26.95 7.85L26.95 12.91L28 13.26L28 13.72L24.36 13.72L24.36 13.26L25.56 12.91L25.56 7.81L24.36 7.67L24.36 7.22L26.50 6.71L26.95 6.71L26.95 7.27ZM41.50 13.72L40.96 12.53L40.96 12.53Q40.32 11.07 40.08 10.60L40.08 10.60L40.08 10.60Q39.84 10.12 39.66 9.99L39.66 9.99L39.66 9.99Q39.47 9.86 39.09 9.86L39.09 9.86L38.61 9.86L38.61 12.91L39.83 13.20L39.83 13.72L35.97 13.72L35.97 13.20L37.23 12.91L37.23 5.96L35.95 5.67L35.95 5.15L39.54 5.15L39.54 5.15Q41.08 5.15 41.83 5.75L41.83 5.75L41.83 5.75Q42.57 6.36 42.57 7.29L42.57 7.29L42.57 7.29Q42.57 8.09 42.08 8.72L42.08 8.72L42.08 8.72Q41.59 9.35 40.54 9.62L40.54 9.62L40.54 9.62Q40.89 9.73 41.09 9.88L41.09 9.88L41.09 9.88Q41.29 10.04 41.44 10.32L41.44 10.32L41.44 10.32Q41.59 10.60 41.90 11.28L41.90 11.28L41.90 11.28Q42.49 12.54 42.67 12.91L42.67 12.91L43.71 13.20L43.71 13.72L41.50 13.72ZM39.38 9.24L39.38 9.24Q40.21 9.24 40.66 8.74L40.66 8.74L40.66 8.74Q41.10 8.25 41.10 7.42L41.10 7.42L41.10 7.42Q41.10 6.66 40.67 6.24L40.67 6.24L40.67 6.24Q40.24 5.82 39.42 5.82L39.42 5.82L39.42 5.82Q39.06 5.82 38.61 5.95L38.61 5.95L38.61 9.24L39.38 9.24ZM47.10 13.87L47.10 13.87Q45.44 13.87 44.66 12.94L44.66 12.94L44.66 12.94Q43.88 12.01 43.88 10.32L43.88 10.32L43.88 10.32Q43.88 8.51 44.68 7.61L44.68 7.61L44.68 7.61Q45.49 6.71 46.94 6.71L46.94 6.71L46.94 6.71Q48.33 6.71 48.98 7.35L48.98 7.35L48.98 7.35Q49.63 7.99 49.63 9.37L49.63 9.37L49.63 9.37Q49.63 9.73 49.59 10.14L49.59 10.14L45.39 10.14L45.39 10.54L45.39 10.54Q45.39 11.77 45.91 12.40L45.91 12.40L45.91 12.40Q46.44 13.03 47.40 13.03L47.40 13.03L47.40 13.03Q48.30 13.03 49.45 12.71L49.45 12.71L49.55 13.20L49.55 13.20Q48.99 13.55 48.41 13.71L48.41 13.71L48.41 13.71Q47.84 13.87 47.10 13.87L47.10 13.87ZM45.42 9.56L48.17 9.41L48.17 9.10L48.17 9.10Q48.17 8.29 47.91 7.89L47.91 7.89L47.91 7.89Q47.64 7.49 47.03 7.49L47.03 7.49L47.03 7.49Q46.19 7.49 45.83 7.97L45.83 7.97L45.83 7.97Q45.47 8.46 45.42 9.56L45.42 9.56ZM53.28 7.56L53.28 7.56Q52.63 7.56 52.01 7.76L52.01 7.76L51.69 8.95L51.14 8.95L50.90 7.22L50.90 7.22Q52.30 6.71 53.61 6.71L53.61 6.71L53.61 6.71Q54.67 6.71 55.23 7.06L55.23 7.06L55.23 7.06Q55.79 7.42 55.79 8.30L55.79 8.30L55.79 12.80L56.99 13.09L56.99 13.55L56.99 13.55Q56.21 13.78 55.50 13.78L55.50 13.78L55.50 13.78Q55.10 13.78 54.81 13.58L54.81 13.58L54.81 13.58Q54.52 13.38 54.43 13.02L54.43 13.02L54.43 13.02Q53.86 13.44 53.30 13.66L53.30 13.66L53.30 13.66Q52.74 13.87 52.12 13.87L52.12 13.87L52.12 13.87Q51.39 13.87 50.98 13.37L50.98 13.37L50.98 13.37Q50.57 12.87 50.57 12.15L50.57 12.15L50.57 12.15Q50.57 11.48 50.95 10.92L50.95 10.92L50.95 10.92Q51.34 10.36 52.35 10.18L52.35 10.18L54.40 9.80L54.40 8.68L54.40 8.68Q54.40 8.11 54.16 7.83L54.16 7.83L54.16 7.83Q53.91 7.56 53.28 7.56L53.28 7.56ZM53.13 10.70L53.13 10.70Q51.98 10.92 51.98 11.94L51.98 11.94L51.98 11.94Q51.98 12.92 52.92 12.92L52.92 12.92L52.92 12.92Q53.52 12.92 54.40 12.45L54.40 12.45L54.40 10.47L53.13 10.70ZM60.77 13.86L60.77 13.86Q59.21 13.86 58.45 12.87L58.45 12.87L58.45 12.87Q57.69 11.89 57.69 10.32L57.69 10.32L57.69 10.32Q57.69 8.69 58.44 7.70L58.44 7.70L58.44 7.70Q59.19 6.71 60.77 6.71L60.77 6.71L60.77 6.71Q61.43 6.71 61.96 6.81L61.96 6.81L61.96 6.81Q62.48 6.92 63.08 7.15L63.08 7.15L62.82 8.95L62.26 8.95L61.94 7.67L61.94 7.67Q61.39 7.49 60.86 7.49L60.86 7.49L60.86 7.49Q59.92 7.49 59.56 8.20L59.56 8.20L59.56 8.20Q59.21 8.92 59.21 10.28L59.21 10.28L59.21 10.28Q59.21 11.68 59.59 12.35L59.59 12.35L59.59 12.35Q59.98 13.02 60.94 13.02L60.94 13.02L60.94 13.02Q61.99 13.02 63.03 12.70L63.03 12.70L63.11 13.20L63.11 13.20Q62.54 13.52 61.98 13.69L61.98 13.69L61.98 13.69Q61.42 13.86 60.77 13.86L60.77 13.86ZM67.94 13.55L67.94 13.55Q67.54 13.66 66.86 13.76L66.86 13.76L66.86 13.76Q66.18 13.85 65.81 13.85L65.81 13.85L65.81 13.85Q64.68 13.85 64.68 12.71L64.68 12.71L64.68 7.64L63.66 7.64L63.66 7.10L64.81 6.69L65.42 5.29L66.05 5.29L66.05 6.85L68.14 6.85L68.14 7.76L66.05 7.64L66.05 12.80L67.94 13.08L67.94 13.55Z"></path></g><!----><g data-v-423bf9ae="" id="0ff7af84-f07e-476e-a641-9e6dc3f4e9e8" transform="matrix(1,0,0,1,-6.5260009765625,-5)" stroke="none" fill="#25347B"><path d="M15.863 7.293L7.474 25.979l17.16-12.584 3.432 12.584L7.474 52.672 17.77 80.89 51.157 95l6.103-5.72 3.601.762 2.793-2.554 17.962 1.463-9.713-12.373 4.257-4.657 12.242-.266-7.186-6.254 11.31-11.973-29.272-.132L50 42.652l-17.082 9.446 11.975-32.329L31.854 5z"></path></g><!----></svg>